<svg xmlns="http://www.w3.org/2000/svg" width="515" height="485" viewBox="0 0 515 485" version="1.1">
	<path d="M 113.359 0.693 C 112.732 1.137, 115.882 1.543, 120.359 1.595 C 129.761 1.704, 137.447 4.661, 142.535 10.127 L 145.500 13.312 140.668 10.052 C 133.453 5.183, 126.028 2.893, 118.372 3.176 C 114.799 3.308, 111.566 2.979, 111.188 2.446 C 110.403 1.338, 91.588 2.069, 90.411 3.252 C 89.999 3.666, 92.385 3.720, 95.712 3.372 C 103.022 2.608, 112.093 3.616, 114.635 5.475 C 116.237 6.647, 115.805 6.701, 111.497 5.870 C 102.938 4.219, 95 4.622, 88.500 7.037 C 78.922 10.596, 77.468 12.477, 84.250 12.538 C 89.381 12.584, 94 13.713, 94 14.921 C 94 15.407, 92.655 16.273, 91.012 16.846 C 84.212 19.216, 75.405 26.643, 71.261 33.500 C 68.441 38.166, 66.113 46, 67.546 46 C 67.896 46, 69.966 44.473, 72.147 42.606 C 75.814 39.468, 80.287 37.620, 81.437 38.770 C 81.703 39.036, 81.168 40.659, 80.248 42.377 C 78.979 44.747, 78.566 48.196, 78.538 56.677 C 78.514 63.804, 78.175 67.275, 77.604 66.256 C 76.095 63.561, 75.670 51.366, 76.914 46.427 C 77.561 43.858, 77.834 41.500, 77.520 41.187 C 77.207 40.874, 74.585 42.953, 71.694 45.809 C 68.803 48.664, 66.049 51, 65.574 51 C 65.099 51, 64.986 48.050, 65.323 44.445 C 66.413 32.770, 73.570 23.305, 85.879 17.261 C 91.202 14.646, 91.344 14.482, 88.566 14.166 C 86.953 13.982, 83.465 13.982, 80.816 14.166 C 73.503 14.673, 74.661 11.917, 84 6.591 C 89.286 3.576, 88.636 3.125, 83.086 5.956 C 78.151 8.474, 73.477 13.877, 74.956 15.356 C 75.543 15.943, 77.931 16.374, 80.262 16.314 C 82.593 16.253, 83.825 16.450, 83 16.751 C 81.221 17.400, 79.063 19.040, 71.351 25.600 C 63.229 32.509, 58.611 37.546, 53.806 44.736 C 51.514 48.166, 49.465 50.798, 49.252 50.585 C 48.439 49.773, 54.189 39.845, 58.684 34.298 C 64.094 27.622, 63.702 27.994, 71.947 21.750 C 77.826 17.298, 79.397 14.948, 73.973 18.719 C 64.509 25.298, 56.394 34.321, 50.940 44.325 C 46.930 51.679, 46.245 53.584, 48 52.500 C 49.541 51.547, 49.192 52.473, 47.100 54.885 C 44.833 57.499, 42 69.296, 42 76.123 C 42 81.148, 41.381 81.910, 39.053 79.750 C 37.959 78.734, 37.856 78.781, 38.505 80 C 38.945 80.825, 39.942 82.245, 40.722 83.156 C 41.520 84.088, 42 86.276, 41.820 88.156 C 41.538 91.107, 41.123 91.536, 38.296 91.810 C 36.534 91.980, 34.172 91.627, 33.046 91.025 C 31.911 90.417, 31 90.342, 31 90.856 C 31 91.878, 38.173 95, 40.520 95 C 42.326 95, 42.539 99.549, 40.784 100.634 C 40.115 101.047, 37.978 101.697, 36.034 102.078 C 32.552 102.760, 32.568 102.772, 37.103 102.885 L 41.707 103 42.898 110.214 C 43.681 114.954, 44.932 118.533, 46.545 120.648 C 47.895 122.418, 49 124.102, 49 124.389 C 49 124.676, 47.875 126.569, 46.500 128.595 C 45.125 130.621, 44.014 132.779, 44.031 133.390 C 44.048 134, 45.118 132.782, 46.409 130.682 C 52.381 120.967, 60.344 116, 69.947 116 C 76.040 116, 83.054 118.071, 86.256 120.816 C 88.516 122.753, 87.621 123.734, 85.274 121.893 C 83.661 120.626, 83.624 120.659, 84.872 122.250 C 86.398 124.195, 88.646 124.563, 89.181 122.956 C 89.380 122.360, 90.381 122.682, 91.515 123.706 C 92.607 124.693, 94.063 125.545, 94.750 125.600 C 97.570 125.826, 97.989 126.056, 97.750 127.250 C 97.612 127.938, 98.063 128.388, 98.750 128.250 C 99.474 128.105, 100 129.017, 100 130.418 C 100 132.093, 98.948 133.487, 96.580 134.950 C 92.967 137.184, 73.455 141.399, 71.714 140.323 C 71.127 139.961, 70.995 140.183, 71.405 140.845 C 71.797 141.480, 71.643 142, 71.062 142 C 69.055 142, 57.442 147.940, 54.998 150.216 C 52.677 152.379, 47 153.426, 47 151.691 C 47 151.246, 46.502 151.190, 45.893 151.566 C 44.272 152.568, 46.756 153.877, 49.111 153.261 C 50.150 152.989, 51 153.018, 51 153.326 C 51 154.776, 46.669 161.002, 45.651 161.015 C 45.015 161.024, 45.171 161.464, 46 162 C 46.905 162.585, 47.027 162.975, 46.307 162.985 C 45.650 162.993, 44.413 162, 43.557 160.777 C 42.701 159.555, 42 158.865, 42 159.244 C 42 160.503, 45.360 167, 46.011 167 C 46.363 167, 47.708 165.875, 49 164.500 C 50.292 163.125, 51.890 162, 52.552 162 C 53.214 162, 54.294 161.351, 54.952 160.558 C 56.390 158.825, 69.331 152.512, 73.381 151.568 L 76.261 150.896 75.660 161.698 C 75.329 167.639, 74.770 176.267, 74.417 180.872 C 73.918 187.384, 74.078 189.438, 75.138 190.120 C 77.671 191.750, 85.279 189.101, 91.683 184.358 C 93.434 183.061, 95.262 182, 95.746 182 C 97.840 182, 105.961 171.018, 110.455 162.112 C 114.248 154.594, 117.841 143.148, 119.132 134.473 C 119.784 130.089, 120.767 126.920, 121.570 126.611 C 122.311 126.327, 126.873 125.162, 131.708 124.022 C 142.649 121.443, 148.428 119.416, 163 113.045 C 172.934 108.701, 175.385 108.017, 181 108.018 C 196.723 108.022, 207 118.940, 207 135.641 C 207 147.043, 201.852 157.269, 193.256 162.938 C 187.183 166.945, 186.857 168.378, 192.886 164.572 C 195.127 163.157, 197.224 162, 197.547 162 C 197.869 162, 199.695 160.809, 201.604 159.353 C 204.880 156.854, 205.310 156.776, 209.287 157.967 C 216.010 159.981, 220.607 164.340, 224.463 172.356 L 227.916 179.536 226.568 189.018 C 225.827 194.233, 224.248 202.265, 223.059 206.866 C 221.871 211.468, 221.064 215.968, 221.267 216.866 C 221.469 217.765, 222.215 215.800, 222.923 212.500 C 223.631 209.200, 224.599 205.375, 225.074 204 C 225.549 202.625, 226.671 197.225, 227.567 192 C 229.079 183.183, 229.053 176.919, 227.467 167.500 C 227.075 165.170, 227.160 164.947, 227.851 166.500 C 231.634 175.009, 231.993 186.002, 228.965 200.653 C 225.732 216.296, 224.036 227.125, 224.017 232.250 C 223.990 239.796, 227.552 258.821, 230.963 269.349 C 231.525 271.082, 232.625 274.525, 233.409 277 C 235.091 282.315, 240.683 295.483, 245.724 306 C 250.533 316.035, 250.471 315.845, 248.020 313 L 245.866 310.500 247.079 312.957 C 249.114 317.079, 258.368 329.104, 265.196 336.500 C 268.751 340.350, 275.358 348.225, 279.878 354 C 284.399 359.775, 288.646 365.175, 289.316 366 C 289.986 366.825, 295.705 374.250, 302.024 382.500 C 336.866 427.987, 343.799 439.369, 354.599 468.816 C 357.525 476.792, 360.376 483.776, 360.936 484.336 C 362.574 485.974, 365.519 482.532, 367.446 476.725 C 372.610 461.164, 369.637 431.537, 360.551 407.998 C 356.382 397.198, 344.330 373.589, 340.758 369.226 C 340.184 368.525, 339.956 367.711, 340.251 367.416 C 341.415 366.251, 355.882 382.307, 366.749 396.824 C 373.058 405.252, 378.891 412.405, 379.711 412.719 C 383.535 414.187, 384.816 404.784, 382.737 390.500 C 379.451 367.922, 369.933 347.468, 354.119 329 C 344.669 317.964, 333.038 307.099, 324.568 301.395 C 321.795 299.528, 320.163 298, 320.940 298 C 322.674 298, 345.631 313.203, 353.763 319.737 C 357.024 322.356, 363.487 327.957, 368.126 332.183 C 382.260 345.058, 385.344 346.931, 388.552 344.586 C 390.064 343.480, 390.224 342.257, 389.692 335.900 C 389.032 328.023, 387.537 323.006, 383.368 314.676 C 379.177 306.302, 370.505 293.880, 365.093 288.500 C 362.327 285.750, 360.050 283.112, 360.032 282.639 C 360.014 282.165, 361.514 282.061, 363.365 282.409 C 368.798 283.428, 371.458 280.581, 371.361 273.851 C 371.263 267.058, 368.857 262.266, 360.933 253.082 C 357.572 249.187, 355.003 246, 355.225 246 C 357.741 246, 379.887 242.607, 388 240.979 C 427.827 232.985, 456.912 219.920, 479.092 200.059 C 496.567 184.411, 500.255 172, 487.429 172 C 484.993 172, 483 171.794, 483 171.542 C 483 171.291, 486.525 167.578, 490.832 163.292 C 507.062 147.146, 517.370 125.854, 514.154 115.120 C 512.741 110.402, 511.268 109.080, 506.580 108.319 C 502.068 107.587, 495.442 110.016, 489.428 114.607 C 486.983 116.473, 484.783 118, 484.539 118 C 484.295 118, 485.153 115.863, 486.445 113.250 C 496.437 93.044, 494.616 78.983, 482.010 79.009 C 475.756 79.022, 469.170 83.058, 460.115 92.425 C 456.054 96.627, 452.554 99.887, 452.338 99.671 C 452.121 99.454, 452.407 98.061, 452.972 96.574 C 453.537 95.087, 454 90.122, 454 85.541 C 454 77.729, 453.820 77.018, 451.099 74.106 C 447.039 69.760, 440.304 69.701, 433.884 73.954 C 425.987 79.184, 416.219 92.615, 407.123 110.750 C 404.295 116.387, 401.838 121, 401.661 121 C 401.485 121, 401.289 118.709, 401.225 115.908 C 401.080 109.542, 398.926 106, 395.199 106 C 387.864 106, 384.550 111.306, 365.063 154.250 C 360.238 164.883, 356.654 172.580, 350.512 185.500 L 344.807 197.500 343.154 195.026 C 338.619 188.242, 335.075 184.383, 330.804 181.581 C 328.222 179.886, 326.084 178.272, 326.054 177.994 C 326.025 177.716, 327.350 176.891, 329 176.160 C 331.403 175.097, 332 174.215, 332 171.732 C 332 167.841, 324.772 160.523, 317.597 157.151 C 313.976 155.449, 313.024 154.576, 313.867 153.733 C 315.696 151.904, 315.173 148.244, 312.750 145.913 C 309.923 143.194, 300.591 138.792, 296.087 138.054 C 293.235 137.586, 292.655 137.055, 292.557 134.819 C 292.171 125.995, 276.128 121.276, 250.148 122.343 C 236.266 122.914, 234.855 122.820, 235.416 121.358 C 237.624 115.605, 238.236 109.737, 237.744 99.056 C 237.307 89.571, 236.629 85.640, 234.230 78.679 C 230.341 67.396, 224.364 57.098, 216.062 47.375 C 210.087 40.376, 194.405 25.556, 196.355 28.750 C 196.778 29.444, 196.647 30, 196.059 30 C 195.477 30, 195 29.356, 195 28.568 C 195 27.781, 193.650 26.175, 192 25 C 190.350 23.825, 189 23.272, 189 23.771 C 189 24.271, 190.183 25.218, 191.629 25.877 C 193.075 26.536, 194.030 27.304, 193.750 27.583 C 193.471 27.862, 190.825 26.664, 187.871 24.921 C 178.333 19.290, 162.015 12.813, 154.500 11.674 C 146.652 10.484, 143.999 9.656, 142.410 7.901 C 140.758 6.075, 140.805 5.995, 143.595 5.881 C 145.480 5.803, 144.393 5.322, 140.500 4.511 C 137.200 3.823, 133.205 2.741, 131.623 2.107 C 127.966 0.640, 114.867 -0.374, 113.359 0.693 M 124.500 46.351 C 119.871 48.508, 117.337 51.175, 114.308 57.078 C 111.737 62.088, 111.498 63.548, 111.166 76.268 C 110.342 107.881, 119.141 123.712, 136.341 121.563 C 142.659 120.774, 146.088 119.038, 141.376 119.015 C 137.063 118.994, 130.025 116.372, 127.227 113.743 C 121.715 108.566, 118.474 96.398, 118.637 81.500 C 118.770 69.435, 120.069 64.523, 124.319 60.020 C 130.510 53.461, 139.051 52.510, 146.481 57.552 C 150.892 60.545, 152.150 60.598, 154.595 57.892 C 156.485 55.801, 156.472 55.761, 153 52.842 C 145.251 46.327, 131.347 43.160, 124.500 46.351 M 47.745 59.750 C 44.837 62.792, 43.062 68.996, 43.024 76.250 C 42.998 81.459, 45.274 83.027, 46.393 78.569 C 46.729 77.233, 48.567 74.481, 50.478 72.455 C 53.394 69.363, 54.398 68.877, 56.726 69.431 C 62.068 70.702, 64.527 77.368, 65.605 93.500 C 66.030 99.856, 65.851 105.466, 65.116 108.896 C 64.479 111.864, 64.080 114.411, 64.229 114.558 C 64.378 114.704, 65.723 114.588, 67.218 114.301 C 70.949 113.584, 71.505 111.354, 71.282 98 C 70.984 80.191, 66.354 63.783, 60.278 59.004 C 56.484 56.019, 51 56.346, 47.745 59.750 M 156.646 58.750 C 156.322 59.712, 155.524 61.225, 154.872 62.111 C 153.906 63.423, 154.217 64.442, 156.552 67.611 C 158.129 69.750, 159.555 71.693, 159.722 71.929 C 159.889 72.165, 161.638 71.589, 163.609 70.650 L 167.192 68.941 164.784 65.720 C 163.459 63.949, 161.503 61.277, 160.438 59.781 C 158.156 56.580, 157.440 56.385, 156.646 58.750 M 130.946 65.257 C 129.104 66.498, 126.338 69.925, 124.799 72.871 C 122.252 77.747, 122 79.172, 122 88.730 C 122 106.441, 126.503 114.717, 137.368 116.973 C 141.765 117.885, 143.929 117.820, 148.466 116.635 C 155.326 114.844, 158.015 113.158, 161.683 108.348 C 164.235 105.003, 164.500 103.896, 164.499 96.578 C 164.499 89.839, 164.038 87.517, 161.722 82.570 C 153.948 65.964, 140.839 58.590, 130.946 65.257 M 164.583 73.515 C 161.714 75.803, 161.691 75.901, 163.119 79.670 C 164.268 82.700, 165.163 83.569, 167.407 83.828 C 171.715 84.327, 172.346 82.934, 170.445 77.120 C 169.518 74.287, 168.476 71.794, 168.129 71.580 C 167.783 71.366, 166.187 72.237, 164.583 73.515 M 50.651 81.843 C 46.168 86.522, 44 93.760, 44 104.051 C 44 111.173, 44.432 113.926, 46.045 117.089 C 48.659 122.212, 50.118 122.708, 54.540 119.975 L 58.132 117.756 55.085 115.128 C 49.123 109.986, 48.716 97.137, 54.350 91.889 C 57.039 89.383, 58.598 89.507, 61.551 92.460 L 64.011 94.920 63.365 90.710 C 63.009 88.394, 61.873 84.813, 60.839 82.750 C 58.441 77.967, 54.685 77.632, 50.651 81.843 M 143 79.709 C 138.649 81.309, 135 87.599, 135 93.496 C 135 101.093, 140.435 110.695, 146.050 113.021 C 148.802 114.161, 149.652 114.104, 152.463 112.590 C 162.795 107.026, 160.455 86.469, 148.800 80.405 C 145.926 78.910, 145.359 78.842, 143 79.709 M 170.500 86 C 170.160 86.550, 168.966 87, 167.847 87 C 165.976 87, 165.869 87.408, 166.512 92.087 C 167.366 98.295, 165.694 105.148, 162.141 110 L 159.579 113.500 163.039 110.893 C 164.943 109.459, 167.843 106.393, 169.484 104.080 C 172.014 100.513, 172.525 98.744, 172.843 92.437 C 173.084 87.670, 172.842 85, 172.168 85 C 171.591 85, 170.840 85.450, 170.500 86 M 107.444 143.715 C 107.715 144.422, 107.501 145, 106.969 145 C 106.436 145, 106 145.675, 106 146.500 C 106 147.325, 106.563 148.007, 107.250 148.015 C 108.134 148.026, 108.087 148.292, 107.090 148.923 C 105.425 149.977, 101.842 158.935, 102.596 160.156 C 102.883 160.620, 102.718 161, 102.228 161 C 101.738 161, 100.702 162.238, 99.925 163.750 C 99.147 165.262, 97.271 168.255, 95.756 170.400 C 94.240 172.545, 93 174.934, 93 175.709 C 93 176.519, 92.510 176.815, 91.845 176.405 C 91.128 175.961, 90.963 176.130, 91.409 176.853 C 91.826 177.527, 91.366 178.283, 90.313 178.656 C 87.902 179.510, 84 183.076, 84.001 184.424 C 84.002 185.016, 85.127 184.193, 86.501 182.594 C 87.876 180.996, 89 180.068, 89 180.532 C 89 180.995, 90.350 180.081, 92 178.500 C 93.650 176.919, 95 175.008, 95 174.254 C 95 173.499, 95.445 173.157, 95.989 173.493 C 96.576 173.856, 96.710 173.407, 96.319 172.388 C 95.833 171.123, 96.013 170.890, 97 171.500 C 97.985 172.109, 98.167 171.877, 97.687 170.626 C 97.282 169.572, 97.598 168.708, 98.517 168.355 C 99.333 168.042, 100 167.159, 100 166.393 C 100 165.627, 100.503 165.113, 101.117 165.250 C 101.732 165.388, 102.377 164.645, 102.551 163.600 C 102.725 162.555, 103.234 161.430, 103.684 161.100 C 104.133 160.770, 104.654 159.600, 104.842 158.500 C 105.029 157.400, 105.567 156.358, 106.035 156.185 C 106.504 156.012, 106.611 155.151, 106.274 154.271 C 105.819 153.085, 106.027 152.893, 107.080 153.528 C 108.259 154.239, 108.284 154.117, 107.224 152.809 C 106.183 151.523, 106.203 151.136, 107.331 150.703 C 108.091 150.412, 109.171 148.366, 109.732 146.158 C 110.659 142.505, 110.580 142.156, 108.851 142.286 C 107.747 142.369, 107.157 142.968, 107.444 143.715 M 93.331 150.420 C 93.684 151.341, 93.437 151.879, 92.724 151.738 C 92.063 151.607, 91.086 152.963, 90.554 154.750 C 90.022 156.537, 89.229 158, 88.793 158 C 88.357 158, 88 160.475, 88 163.500 C 88 166.525, 88.436 169, 88.969 169 C 89.501 169, 89.696 169.629, 89.400 170.399 C 88.598 172.491, 90.578 173.213, 92.098 171.382 C 96.112 166.545, 100.596 156.694, 100.511 152.899 C 100.439 149.693, 100.216 149.482, 96.584 149.182 C 93.437 148.922, 92.843 149.148, 93.331 150.420 M 116 188.337 C 116 189.866, 116.414 190.862, 116.920 190.550 C 117.426 190.237, 119.259 192.573, 120.994 195.741 L 124.148 201.500 122.580 206.570 C 120.246 214.113, 115.864 220.023, 105.777 229.229 C 85.052 248.144, 85.423 247.503, 75.506 281.500 C 68.979 303.875, 61.630 323.964, 60.416 322.750 C 60.123 322.456, 60.584 320.538, 61.441 318.486 C 63.219 314.231, 63.392 313.189, 62.094 314.550 C 60.719 315.991, 57 328.816, 57 332.116 C 57 333.714, 56.139 336.929, 55.087 339.261 C 54.035 341.592, 51.383 347.550, 49.193 352.500 C 34.263 386.249, 27.705 397.177, 5.798 424.816 C -1.811 434.416, -1.777 436.288, 6.009 436.180 C 18.051 436.014, 33.422 427.423, 47.719 412.868 C 61.057 399.289, 69.545 385.870, 78.537 364.146 C 81.643 356.640, 84.563 349.600, 85.025 348.500 C 86.255 345.571, 86.237 352.571, 84.988 363.026 C 83.315 377.024, 81.076 385.938, 74.945 403 C 67.666 423.257, 67.797 422.250, 72.443 422.250 C 77.461 422.250, 85.719 417.101, 92.573 409.699 C 96.239 405.740, 99.641 401.600, 100.133 400.500 C 100.624 399.400, 102.223 396.475, 103.686 394 C 107.516 387.521, 113.925 370.006, 114.070 365.620 C 114.235 360.660, 115.863 367.624, 116.029 374 C 116.269 383.175, 117.061 385.439, 120.156 385.804 C 127.629 386.684, 136.110 363.631, 137.851 337.708 C 138.714 324.848, 138.750 324.872, 144.175 342 C 147.911 353.797, 149.226 354.928, 153.842 350.312 C 159.475 344.678, 163.557 327.320, 162.835 312.066 C 162.651 308.177, 162.768 304.997, 163.095 304.998 C 163.422 304.999, 164.505 305.900, 165.500 307 C 166.619 308.236, 168.580 309, 170.635 309 C 173.501 309, 174.238 308.454, 175.980 305.040 C 177.279 302.493, 178 299.125, 178 295.603 L 178 290.126 181.441 290.684 C 184.534 291.186, 185.090 290.901, 186.937 287.871 C 189.361 283.896, 189.549 279.143, 187.546 272.488 C 186.747 269.832, 186.278 267.360, 186.504 266.994 C 186.730 266.629, 185.246 265.535, 183.207 264.563 C 162.957 254.914, 142.999 234.491, 129.644 209.750 C 127.640 206.037, 124.363 199.963, 122.362 196.250 C 120.361 192.537, 118.111 188.612, 117.362 187.527 C 116.066 185.651, 116 185.690, 116 188.337" stroke="none" fill="#000000" fill-rule="evenodd"/>
</svg>